<svg width="32" height="32" xmlns="http://www.w3.org/2000/svg">

 <g>
  <title>background</title>
  <rect fill="none" id="canvas_background" height="402" width="582" y="-1" x="-1"/>
 </g>
 <g>
  <title>Layer 1</title>
  <path id="svg_2" fill="#ffffff" d="m16,12c2.203,0 4,1.795 4,4s-1.797,4 -4,4s-4,-1.795 -4,-4s1.797,-4 4,-4m0,-4c-4.418,0 -8,3.582 -8,8s3.582,8 8,8s8,-3.582 8,-8s-3.582,-8 -8,-8l0,0z"/>
  <circle id="svg_3" fill="#ffffff" r="2" cy="2" cx="16"/>
  <circle id="svg_4" fill="#ffffff" r="2" cy="6" cx="6"/>
  <path id="svg_5" fill="#ffffff" d="m2,13.998c1.105,0 2,0.895 2,2c0,1.107 -0.895,2 -2,2s-2,-0.893 -2,-2c0,-1.105 0.895,-2 2,-2z"/>
  <circle id="svg_6" fill="#ffffff" r="2" cy="26" cx="6"/>
  <path id="svg_7" fill="#ffffff" d="m14,30c0,-1.109 0.895,-2 2,-2c1.109,0 2,0.891 2,2c0,1.102 -0.891,2 -2,2c-1.105,0 -2,-0.898 -2,-2z"/>
  <path id="svg_8" fill="#ffffff" d="m24.594,27.414c-0.781,-0.781 -0.781,-2.047 0,-2.828c0.785,-0.781 2.047,-0.781 2.828,0s0.785,2.047 0,2.828c-0.781,0.781 -2.047,0.781 -2.828,0z"/>
  <path id="svg_9" fill="#ffffff" d="m29.996,17.998c-1.101,0 -1.996,-0.894 -1.996,-1.998c0,-1.109 0.891,-2 2,-2c1.102,0 2,0.893 2,1.998c0,1.107 -0.898,2.002 -2.004,2z"/>
  <path id="svg_10" fill="#ffffff" d="m27.422,7.416c-0.781,0.779 -2.047,0.779 -2.828,0c-0.781,-0.785 -0.781,-2.047 0,-2.83c0.781,-0.779 2.047,-0.781 2.828,0.002c0.781,0.781 0.781,2.049 0,2.828z"/>
 </g>
</svg>